<svg width="2994" height="510" viewBox="0 0 2994 510" fill="none" xmlns="http://www.w3.org/2000/svg">
<path d="M380.364 325.004L376.833 176.393L375.619 176.083C410.08 166.292 439.753 146.267 447.263 104.609C453.338 70.9095 443.121 39.4403 416.281 19.0244C387.278 -3.03059 348.301 -5.23092 314.796 8.9162C253.598 34.7443 234.907 62.8466 163.507 71.1163C203.198 102.482 246.338 116.718 293.671 121.879C264.094 126.915 234.496 122.425 206 109.821L136.402 79.0316C112.319 68.3769 85.2069 64.7368 59.6242 67.3727C19.6982 71.5076 -6.21549 106.034 1.29455 145.898C10.7465 196.085 73.5851 195.856 112.783 182.521C115.556 181.428 118.616 180.247 122.007 178.955C119.123 180.217 116.034 181.414 112.783 182.521C109.804 183.688 107.156 184.758 104.787 185.733C124.625 177.685 155.96 169.548 200.844 170.19C283.903 171.372 375.377 220.259 380.614 348.351L380.599 334.95C380.599 331.612 380.511 328.297 380.364 325.004Z" fill="#FF6200"/>
<path d="M189.318 192.533C144.434 191.89 113.1 200.035 93.2618 208.075C92.3276 208.459 91.4302 208.836 90.577 209.198C73.7695 216.375 66.0977 223.145 66.0977 223.145C78.9626 232.597 86.9286 250.901 89.3633 266.251C91.8274 281.75 92.0334 297.846 89.2383 313.344C93.5781 308.693 97.9693 304.425 102.5 300.526C112.945 291.526 124.14 284.467 137.233 279.247C174.703 264.494 216.968 266.731 252.767 285.375C260.733 289.503 268.391 294.568 275.592 300.364C302.653 322.168 323.05 354.582 327.382 388.702C306.235 375.33 286.397 371.048 263.095 377.701C235.423 385.594 211.642 402.266 186.045 414.803C166.567 424.343 140.117 433.802 122.302 415.948C111.996 405.626 109.746 389.692 114.696 376.253C137.307 314.917 227.243 336.167 270.185 360.858C271.708 361.737 274.996 362.985 275.871 364.631C274.981 362.941 274.385 361.885 273.767 360.873C271.649 357.447 269.2 354.22 266.581 351.171C257.262 340.347 245.471 331.789 232.694 325.527C197.608 308.346 155.181 305.045 117.741 316.017C105.531 319.598 93.9091 325.07 83.4421 332.335C55.1158 352.013 40.3385 384.361 42.5966 418.709C44.693 450.636 62.361 478.355 90.805 493.115C108.51 502.3 127.951 505.999 148.112 505.49C188.45 504.478 226.795 488.596 258.872 462.65L259.137 501.444H369.213L369.096 370.671C363.866 242.579 272.385 193.692 189.326 192.511L189.318 192.533Z" fill="#FF6200"/>
<path d="M2867.08 509.361C2826.81 509.361 2795.26 499.214 2772.43 478.921C2749.92 458.31 2738.66 429.931 2738.66 393.783V267.266H2836.64V398.064C2836.64 410.747 2839.33 420.101 2844.73 426.126C2850.43 432.151 2858.04 435.163 2867.56 435.163C2876.75 435.163 2883.89 432.151 2888.96 426.126C2894.35 420.101 2897.04 410.747 2897.04 398.064V267.266H2993.12V393.783C2993.12 430.248 2982.02 458.627 2959.83 478.921C2937.95 499.214 2907.03 509.361 2867.08 509.361Z" fill="#FF6200"/>
<path d="M2515.91 509.362C2494.04 509.362 2474.22 504.13 2456.46 493.666C2438.7 482.885 2424.59 468.141 2414.13 449.433C2403.98 430.725 2398.91 409.321 2398.91 385.223C2398.91 361.124 2403.98 340.038 2414.13 321.964C2424.59 303.89 2438.7 289.78 2456.46 279.633C2474.22 269.169 2494.04 263.937 2515.91 263.937C2531.45 263.937 2546.36 268.218 2560.62 276.779C2575.21 285.024 2585.99 298.5 2592.97 317.208V192.118L2693.32 177.373V505.557H2593.92V461.323C2586.31 476.861 2576.16 488.751 2563.48 496.995C2550.79 505.24 2534.94 509.362 2515.91 509.362ZM2546.83 434.213C2559.83 434.213 2570.93 429.615 2580.12 420.419C2589.32 410.907 2593.92 399.333 2593.92 385.698C2593.92 372.064 2589.32 360.966 2580.12 352.404C2570.93 343.526 2559.83 339.087 2546.83 339.087C2533.2 339.087 2521.78 343.685 2512.59 352.88C2503.39 362.075 2498.79 373.332 2498.79 386.65C2498.79 399.967 2503.39 411.224 2512.59 420.419C2521.78 429.615 2533.2 434.213 2546.83 434.213Z" fill="#FF6200"/>
<path d="M2084.73 505.555V267.265H2183.66V319.109C2190.95 301.352 2201.74 287.717 2216 278.205C2230.59 268.692 2247.87 263.936 2267.85 263.936C2298.92 263.936 2323.02 274.717 2340.14 296.279C2357.27 317.524 2365.83 347.647 2365.83 386.648V505.555H2265.47V381.416C2265.47 353.196 2254.05 339.085 2231.22 339.085C2217.59 339.085 2206.49 344.159 2197.93 354.305C2189.37 364.135 2185.09 377.453 2185.09 394.258V505.555H2084.73Z" fill="#FF6200"/>
<path d="M2002.72 509.361C1981.47 509.361 1964.19 505.556 1950.88 497.946C1937.87 490.336 1928.36 480.031 1922.34 467.03C1916.31 454.03 1913.3 439.444 1913.3 423.272V267.266H2013.66V409.479C2013.66 416.772 2015.72 422.48 2019.84 426.602C2024.28 430.407 2029.51 432.309 2035.54 432.309C2041.88 432.309 2048.38 430.407 2055.04 426.602L2060.27 492.714C2053.29 498.105 2044.26 502.227 2033.16 505.08C2022.06 507.934 2011.91 509.361 2002.72 509.361Z" fill="#FF6200"/>
<path d="M1697.71 505.556L1614.48 267.266H1724.82L1766.2 409.955L1806.63 267.266H1893.67L1813.29 505.556H1697.71Z" fill="#FF6200"/>
<path d="M1437.93 442.772C1447.12 442.772 1456.8 441.821 1466.94 439.919C1477.41 438.016 1488.03 434.528 1498.81 429.455L1510.22 490.811C1498.49 496.836 1485.65 501.433 1471.7 504.604C1458.06 507.775 1442.37 509.36 1424.61 509.36C1392.59 509.36 1365.63 504.129 1343.75 493.665C1322.19 483.201 1305.86 468.773 1294.76 450.382C1283.67 431.991 1278.12 410.747 1278.12 386.648C1278.12 361.916 1283.98 340.354 1295.72 321.963C1307.76 303.572 1323.78 289.303 1343.75 279.156C1363.73 269.009 1385.77 263.936 1409.87 263.936C1445.7 263.936 1473.12 275.193 1492.15 297.706C1511.18 319.902 1520.69 351.61 1520.69 392.831L1378.95 410.905C1389.41 432.15 1409.07 442.772 1437.93 442.772ZM1371.34 367.147L1446.01 351.452C1444.75 341.305 1441.26 333.853 1435.55 329.097C1429.84 324.024 1422.71 321.487 1414.15 321.487C1401.46 321.487 1391.32 325.926 1383.71 334.805C1376.41 343.366 1372.29 354.147 1371.34 367.147Z" fill="#FF6200"/>
<path d="M1084.25 505.555V267.265H1183.18V326.719C1189.52 305.157 1199.35 289.303 1212.67 279.156C1226.3 269.009 1242.47 263.936 1261.18 263.936L1273.07 348.122C1265.46 347.171 1258.01 346.695 1250.72 346.695C1206.64 346.695 1184.6 364.769 1184.6 400.917V505.555H1084.25Z" fill="#FF6200"/>
<path d="M858.641 509.36C836.762 509.36 816.945 504.129 799.188 493.665C781.431 482.884 767.321 468.139 756.857 449.431C746.71 430.723 741.637 409.32 741.637 385.221C741.637 361.123 746.71 340.037 756.857 321.963C767.321 303.889 781.431 289.779 799.188 279.632C816.945 269.168 836.762 263.936 858.641 263.936C874.179 263.936 889.24 268.217 903.826 276.778C918.412 285.339 929.669 299.45 937.596 319.109V267.265H1036.53V505.555H936.644V461.322C929.034 476.859 918.888 488.75 906.204 496.994C893.521 505.238 877.667 509.36 858.641 509.36ZM889.557 434.211C902.558 434.211 913.656 429.613 922.851 420.418C932.047 410.905 936.644 399.332 936.644 385.697C936.644 372.062 932.047 360.964 922.851 352.403C913.656 343.525 902.558 339.085 889.557 339.085C875.923 339.085 864.507 343.683 855.312 352.879C846.116 362.074 841.519 373.331 841.519 386.648C841.519 399.966 846.116 411.222 855.312 420.418C864.507 429.613 875.923 434.211 889.557 434.211Z" fill="#FF6200"/>
<path d="M427.469 505.557V192.118L527.826 177.373V316.257C534.485 299.768 544.949 286.926 559.218 277.731C573.487 268.535 590.609 263.937 610.586 263.937C641.66 263.937 665.759 274.718 682.881 296.28C700.004 317.525 708.565 347.648 708.565 386.65V505.557H608.208V381.418C608.208 353.197 596.793 339.087 573.962 339.087C560.328 339.087 549.23 344.16 540.668 354.307C532.107 364.137 527.826 377.454 527.826 394.26V505.557H427.469Z" fill="#FF6200"/>
<path d="M1951.06 245.238C1942.98 228.147 1946.43 204.947 1926.86 199.294L1893.91 189.775L1912.96 185.768C1946.7 178.675 1942.06 166.693 1950.48 132.056L1958.67 164.372C1960.72 172.476 1967.22 180.101 1975.23 182.241L2007.09 190.787L1983.53 195.896C1969.42 198.956 1960.11 207.606 1956.56 222.376L1951.08 245.225L1951.06 245.238Z" fill="#FF6200"/>
</svg>
